<?xml version="1.0" encoding="UTF-8"?>
<svg width="17px" height="17px" viewBox="0 0 17 17" version="1.1" xmlns="http://www.w3.org/2000/svg" xmlns:xlink="http://www.w3.org/1999/xlink">
    <!-- Generator: Sketch 60 (88103) - https://sketch.com -->
    <title>-mockplus-</title>
    <desc>Created with Sketch.</desc>
    <g id="基线页面" stroke="none" stroke-width="1" fill="currentColor" fill-rule="evenodd">
        <g id="2.1银企对账凭证详情" transform="translate(-171.000000, -1276.000000)">
            <g id="流程" transform="translate(13.000000, 1220.000000)">
                <g id="Group-14">
                    <g id="icon/签名" transform="translate(152.000000, 50.000000)">
                        <g id="-mockplus-" transform="translate(6.000000, 6.000000)">
                            <g id="h5-svg/icon/common/pen">
                                <rect id="矩形" fill="currentColor" opacity="0" x="0" y="0" width="17" height="17"></rect>
                                <g id="编组" transform="translate(1.545455, 0.772727)" fill="currentColor" fill-rule="nonzero">
                                    <path d="M7.13730748,13.1668685 L6.98181097,13.2400851 L6.47428205,13.4685741 L6.12246629,13.6384002 L5.94232892,13.7337734 C5.31332064,14.0812462 5.01799329,14.3496166 5.17382345,14.8866654 C5.32416542,15.4047998 5.80401247,15.5364195 6.78398079,15.5840225 C8.32191034,15.6587292 10.4470329,15.4895807 13.1696845,15.07912 C13.4904021,15.0307694 13.7111992,14.7315804 13.6628486,14.4108628 C13.6144979,14.0901452 13.315309,13.8693481 12.9945913,13.9176988 C10.5617825,14.2844634 8.63189234,14.4524118 7.21289559,14.4235062 L7.51242362,14.2896566 C8.27875698,13.9447324 8.82825556,13.4296722 8.67396504,12.7692312 C8.49985491,12.0239523 7.57070894,11.7675689 5.80613204,11.7675689 C3.53374835,11.7675689 1.69801858,12.1504 0.301067414,12.9304306 C0.0178819983,13.0885559 -0.0834992715,13.4463089 0.0746260104,13.7294943 C0.232751292,14.0126797 0.590504298,14.114061 0.873689714,13.9559357 C2.07554239,13.2848443 3.7189816,12.9421144 5.80613204,12.9421144 C6.39931151,12.9421144 6.85797666,12.9761139 7.18245806,13.0367894 L7.31330715,13.064405 C7.25941674,13.0997457 7.19995811,13.1344243 7.13730748,13.1668685 Z" id="路径-3" opacity="0.7"></path>
                                    <path d="M2.93110159,0.866250743 C2.7198745,0.474973602 3.00322938,-2.44249065e-14 3.44788057,-2.44249065e-14 L10.5638823,-2.44249065e-14 C10.9965664,-2.44249065e-14 11.2806882,0.452017434 11.0930779,0.841912157 L10.1511276,2.79948791 C10.0532845,3.00282699 9.84758671,3.13212121 9.62193199,3.13212121 L4.50465845,3.13212121 C4.28883611,3.13212121 4.0904037,3.01374244 3.98787946,2.8238265 L2.93110159,0.866250743 Z M4.85500759,1.95757576 L9.25279353,1.95757576 L9.62957364,1.17454545 L4.43229644,1.17454545 L4.85500759,1.95757576 Z" id="矩形" transform="translate(7.005834, 1.566061) rotate(-360.000000) translate(-7.005834, -1.566061) "></path>
                                    <path d="M7.44642219,11.7432209 L7.4319008,5.47985071 C7.43114891,5.15550981 7.16760913,4.89318908 6.84326823,4.89393936 C6.51892733,4.89469286 6.25660661,5.15823264 6.25735688,5.48257354 L6.27187828,11.7459437 C6.27263017,12.0702846 6.53616994,12.3326054 6.86051084,12.3318551 C7.18485174,12.3311016 7.44717246,12.0675618 7.44642219,11.7432209 Z" id="路径-8" opacity="0.7" transform="translate(6.851890, 8.612897) rotate(-360.000000) translate(-6.851890, -8.612897) "></path>
                                    <path d="M3.82661246,2.11853649 L0.275463875,5.48311982 C0.0366039571,5.70943085 0.0302700541,6.08780704 0.26142151,6.32198592 L6.60167771,12.7452814 C6.83162424,12.9782395 7.20764594,12.9782395 7.43759247,12.7452814 L13.7778487,6.32198592 C14.0057869,6.0910623 14.0032617,5.71904957 13.7722094,5.49124166 L10.3597095,2.12665833 C10.2498228,2.01831459 10.1017075,1.95757576 9.94739136,1.95757576 L4.23052747,1.95757576 C4.08025435,1.95757576 3.93569846,2.01518149 3.82661246,2.11853649 Z M4.46455652,3.13212121 L9.70656377,3.13212121 L12.5291469,5.91507106 L7.01963509,11.4967417 L1.51842067,5.92347712 L4.46455652,3.13212121 Z" id="路径-7" transform="translate(7.019635, 7.438788) rotate(-360.000000) translate(-7.019635, -7.438788) "></path>
                                </g>
                            </g>
                        </g>
                    </g>
                </g>
            </g>
        </g>
    </g>
</svg>